<?xml version="1.0" encoding="utf-8" standalone="no"?>
<!DOCTYPE svg PUBLIC "-//W3C//DTD SVG 1.1//EN"
  "http://www.w3.org/Graphics/SVG/1.1/DTD/svg11.dtd">
<svg xmlns:xlink="http://www.w3.org/1999/xlink" width="504pt" height="360pt" viewBox="0 0 504 360" xmlns="http://www.w3.org/2000/svg" version="1.1">
 <metadata>
  <rdf:RDF xmlns:dc="http://purl.org/dc/elements/1.1/" xmlns:cc="http://creativecommons.org/ns#" xmlns:rdf="http://www.w3.org/1999/02/22-rdf-syntax-ns#">
   <cc:Work>
    <dc:type rdf:resource="http://purl.org/dc/dcmitype/StillImage"/>
    <dc:date>2024-01-10T13:46:52.303359</dc:date>
    <dc:format>image/svg+xml</dc:format>
    <dc:creator>
     <cc:Agent>
      <dc:title>Matplotlib v3.7.1, https://matplotlib.org/</dc:title>
     </cc:Agent>
    </dc:creator>
   </cc:Work>
  </rdf:RDF>
 </metadata>
 <defs>
  <style type="text/css">*{stroke-linejoin: round; stroke-linecap: butt}</style>
 </defs>
 <g id="figure_1">
  <g id="patch_1">
   <path d="M 0 360 
L 504 360 
L 504 0 
L 0 0 
z
" style="fill: #ffffff"/>
  </g>
  <g id="axes_1">
   <g id="patch_2">
    <path d="M 47.72 318.04 
L 339.25 318.04 
L 339.25 26.68875 
L 47.72 26.68875 
z
" style="fill: #ffffff"/>
   </g>
   <g id="matplotlib.axis_1">
    <g id="xtick_1">
     <g id="line2d_1">
      <defs>
       <path id="m52714a576a" d="M 0 0 
L 0 3.5 
" style="stroke: #000000; stroke-width: 0.8"/>
      </defs>
      <g>
       <use xlink:href="#m52714a576a" x="55.970849" y="318.04" style="stroke: #000000; stroke-width: 0.8"/>
      </g>
     </g>
     <g id="text_1">
      <!-- 0 -->
      <g transform="translate(52.789599 332.638438) scale(0.1 -0.1)">
       <defs>
        <path id="DejaVuSans-30" d="M 2034 4250 
Q 1547 4250 1301 3770 
Q 1056 3291 1056 2328 
Q 1056 1369 1301 889 
Q 1547 409 2034 409 
Q 2525 409 2770 889 
Q 3016 1369 3016 2328 
Q 3016 3291 2770 3770 
Q 2525 4250 2034 4250 
z
M 2034 4750 
Q 2819 4750 3233 4129 
Q 3647 3509 3647 2328 
Q 3647 1150 3233 529 
Q 2819 -91 2034 -91 
Q 1250 -91 836 529 
Q 422 1150 422 2328 
Q 422 3509 836 4129 
Q 1250 4750 2034 4750 
z
" transform="scale(0.015625)"/>
       </defs>
       <use xlink:href="#DejaVuSans-30"/>
      </g>
     </g>
    </g>
    <g id="xtick_2">
     <g id="line2d_2">
      <g>
       <use xlink:href="#m52714a576a" x="110.976509" y="318.04" style="stroke: #000000; stroke-width: 0.8"/>
      </g>
     </g>
     <g id="text_2">
      <!-- 600 -->
      <g transform="translate(101.432759 332.638438) scale(0.1 -0.1)">
       <defs>
        <path id="DejaVuSans-36" d="M 2113 2584 
Q 1688 2584 1439 2293 
Q 1191 2003 1191 1497 
Q 1191 994 1439 701 
Q 1688 409 2113 409 
Q 2538 409 2786 701 
Q 3034 994 3034 1497 
Q 3034 2003 2786 2293 
Q 2538 2584 2113 2584 
z
M 3366 4563 
L 3366 3988 
Q 3128 4100 2886 4159 
Q 2644 4219 2406 4219 
Q 1781 4219 1451 3797 
Q 1122 3375 1075 2522 
Q 1259 2794 1537 2939 
Q 1816 3084 2150 3084 
Q 2853 3084 3261 2657 
Q 3669 2231 3669 1497 
Q 3669 778 3244 343 
Q 2819 -91 2113 -91 
Q 1303 -91 875 529 
Q 447 1150 447 2328 
Q 447 3434 972 4092 
Q 1497 4750 2381 4750 
Q 2619 4750 2861 4703 
Q 3103 4656 3366 4563 
z
" transform="scale(0.015625)"/>
       </defs>
       <use xlink:href="#DejaVuSans-36"/>
       <use xlink:href="#DejaVuSans-30" x="63.623047"/>
       <use xlink:href="#DejaVuSans-30" x="127.246094"/>
      </g>
     </g>
    </g>
    <g id="xtick_3">
     <g id="line2d_3">
      <g>
       <use xlink:href="#m52714a576a" x="165.98217" y="318.04" style="stroke: #000000; stroke-width: 0.8"/>
      </g>
     </g>
     <g id="text_3">
      <!-- 1200 -->
      <g transform="translate(153.25717 332.638438) scale(0.1 -0.1)">
       <defs>
        <path id="DejaVuSans-31" d="M 794 531 
L 1825 531 
L 1825 4091 
L 703 3866 
L 703 4441 
L 1819 4666 
L 2450 4666 
L 2450 531 
L 3481 531 
L 3481 0 
L 794 0 
L 794 531 
z
" transform="scale(0.015625)"/>
        <path id="DejaVuSans-32" d="M 1228 531 
L 3431 531 
L 3431 0 
L 469 0 
L 469 531 
Q 828 903 1448 1529 
Q 2069 2156 2228 2338 
Q 2531 2678 2651 2914 
Q 2772 3150 2772 3378 
Q 2772 3750 2511 3984 
Q 2250 4219 1831 4219 
Q 1534 4219 1204 4116 
Q 875 4013 500 3803 
L 500 4441 
Q 881 4594 1212 4672 
Q 1544 4750 1819 4750 
Q 2544 4750 2975 4387 
Q 3406 4025 3406 3419 
Q 3406 3131 3298 2873 
Q 3191 2616 2906 2266 
Q 2828 2175 2409 1742 
Q 1991 1309 1228 531 
z
" transform="scale(0.015625)"/>
       </defs>
       <use xlink:href="#DejaVuSans-31"/>
       <use xlink:href="#DejaVuSans-32" x="63.623047"/>
       <use xlink:href="#DejaVuSans-30" x="127.246094"/>
       <use xlink:href="#DejaVuSans-30" x="190.869141"/>
      </g>
     </g>
    </g>
    <g id="xtick_4">
     <g id="line2d_4">
      <g>
       <use xlink:href="#m52714a576a" x="220.98783" y="318.04" style="stroke: #000000; stroke-width: 0.8"/>
      </g>
     </g>
     <g id="text_4">
      <!-- 1800 -->
      <g transform="translate(208.26283 332.638438) scale(0.1 -0.1)">
       <defs>
        <path id="DejaVuSans-38" d="M 2034 2216 
Q 1584 2216 1326 1975 
Q 1069 1734 1069 1313 
Q 1069 891 1326 650 
Q 1584 409 2034 409 
Q 2484 409 2743 651 
Q 3003 894 3003 1313 
Q 3003 1734 2745 1975 
Q 2488 2216 2034 2216 
z
M 1403 2484 
Q 997 2584 770 2862 
Q 544 3141 544 3541 
Q 544 4100 942 4425 
Q 1341 4750 2034 4750 
Q 2731 4750 3128 4425 
Q 3525 4100 3525 3541 
Q 3525 3141 3298 2862 
Q 3072 2584 2669 2484 
Q 3125 2378 3379 2068 
Q 3634 1759 3634 1313 
Q 3634 634 3220 271 
Q 2806 -91 2034 -91 
Q 1263 -91 848 271 
Q 434 634 434 1313 
Q 434 1759 690 2068 
Q 947 2378 1403 2484 
z
M 1172 3481 
Q 1172 3119 1398 2916 
Q 1625 2713 2034 2713 
Q 2441 2713 2670 2916 
Q 2900 3119 2900 3481 
Q 2900 3844 2670 4047 
Q 2441 4250 2034 4250 
Q 1625 4250 1398 4047 
Q 1172 3844 1172 3481 
z
" transform="scale(0.015625)"/>
       </defs>
       <use xlink:href="#DejaVuSans-31"/>
       <use xlink:href="#DejaVuSans-38" x="63.623047"/>
       <use xlink:href="#DejaVuSans-30" x="127.246094"/>
       <use xlink:href="#DejaVuSans-30" x="190.869141"/>
      </g>
     </g>
    </g>
    <g id="xtick_5">
     <g id="line2d_5">
      <g>
       <use xlink:href="#m52714a576a" x="275.993491" y="318.04" style="stroke: #000000; stroke-width: 0.8"/>
      </g>
     </g>
     <g id="text_5">
      <!-- 2400 -->
      <g transform="translate(263.268491 332.638438) scale(0.1 -0.1)">
       <defs>
        <path id="DejaVuSans-34" d="M 2419 4116 
L 825 1625 
L 2419 1625 
L 2419 4116 
z
M 2253 4666 
L 3047 4666 
L 3047 1625 
L 3713 1625 
L 3713 1100 
L 3047 1100 
L 3047 0 
L 2419 0 
L 2419 1100 
L 313 1100 
L 313 1709 
L 2253 4666 
z
" transform="scale(0.015625)"/>
       </defs>
       <use xlink:href="#DejaVuSans-32"/>
       <use xlink:href="#DejaVuSans-34" x="63.623047"/>
       <use xlink:href="#DejaVuSans-30" x="127.246094"/>
       <use xlink:href="#DejaVuSans-30" x="190.869141"/>
      </g>
     </g>
    </g>
    <g id="xtick_6">
     <g id="line2d_6">
      <g>
       <use xlink:href="#m52714a576a" x="330.999151" y="318.04" style="stroke: #000000; stroke-width: 0.8"/>
      </g>
     </g>
     <g id="text_6">
      <!-- 3000 -->
      <g transform="translate(318.274151 332.638438) scale(0.1 -0.1)">
       <defs>
        <path id="DejaVuSans-33" d="M 2597 2516 
Q 3050 2419 3304 2112 
Q 3559 1806 3559 1356 
Q 3559 666 3084 287 
Q 2609 -91 1734 -91 
Q 1441 -91 1130 -33 
Q 819 25 488 141 
L 488 750 
Q 750 597 1062 519 
Q 1375 441 1716 441 
Q 2309 441 2620 675 
Q 2931 909 2931 1356 
Q 2931 1769 2642 2001 
Q 2353 2234 1838 2234 
L 1294 2234 
L 1294 2753 
L 1863 2753 
Q 2328 2753 2575 2939 
Q 2822 3125 2822 3475 
Q 2822 3834 2567 4026 
Q 2313 4219 1838 4219 
Q 1578 4219 1281 4162 
Q 984 4106 628 3988 
L 628 4550 
Q 988 4650 1302 4700 
Q 1616 4750 1894 4750 
Q 2613 4750 3031 4423 
Q 3450 4097 3450 3541 
Q 3450 3153 3228 2886 
Q 3006 2619 2597 2516 
z
" transform="scale(0.015625)"/>
       </defs>
       <use xlink:href="#DejaVuSans-33"/>
       <use xlink:href="#DejaVuSans-30" x="63.623047"/>
       <use xlink:href="#DejaVuSans-30" x="127.246094"/>
       <use xlink:href="#DejaVuSans-30" x="190.869141"/>
      </g>
     </g>
    </g>
    <g id="text_7">
     <!-- Time (s) -->
     <g transform="translate(173.156094 346.316563) scale(0.1 -0.1)">
      <defs>
       <path id="DejaVuSans-54" d="M -19 4666 
L 3928 4666 
L 3928 4134 
L 2272 4134 
L 2272 0 
L 1638 0 
L 1638 4134 
L -19 4134 
L -19 4666 
z
" transform="scale(0.015625)"/>
       <path id="DejaVuSans-69" d="M 603 3500 
L 1178 3500 
L 1178 0 
L 603 0 
L 603 3500 
z
M 603 4863 
L 1178 4863 
L 1178 4134 
L 603 4134 
L 603 4863 
z
" transform="scale(0.015625)"/>
       <path id="DejaVuSans-6d" d="M 3328 2828 
Q 3544 3216 3844 3400 
Q 4144 3584 4550 3584 
Q 5097 3584 5394 3201 
Q 5691 2819 5691 2113 
L 5691 0 
L 5113 0 
L 5113 2094 
Q 5113 2597 4934 2840 
Q 4756 3084 4391 3084 
Q 3944 3084 3684 2787 
Q 3425 2491 3425 1978 
L 3425 0 
L 2847 0 
L 2847 2094 
Q 2847 2600 2669 2842 
Q 2491 3084 2119 3084 
Q 1678 3084 1418 2786 
Q 1159 2488 1159 1978 
L 1159 0 
L 581 0 
L 581 3500 
L 1159 3500 
L 1159 2956 
Q 1356 3278 1631 3431 
Q 1906 3584 2284 3584 
Q 2666 3584 2933 3390 
Q 3200 3197 3328 2828 
z
" transform="scale(0.015625)"/>
       <path id="DejaVuSans-65" d="M 3597 1894 
L 3597 1613 
L 953 1613 
Q 991 1019 1311 708 
Q 1631 397 2203 397 
Q 2534 397 2845 478 
Q 3156 559 3463 722 
L 3463 178 
Q 3153 47 2828 -22 
Q 2503 -91 2169 -91 
Q 1331 -91 842 396 
Q 353 884 353 1716 
Q 353 2575 817 3079 
Q 1281 3584 2069 3584 
Q 2775 3584 3186 3129 
Q 3597 2675 3597 1894 
z
M 3022 2063 
Q 3016 2534 2758 2815 
Q 2500 3097 2075 3097 
Q 1594 3097 1305 2825 
Q 1016 2553 972 2059 
L 3022 2063 
z
" transform="scale(0.015625)"/>
       <path id="DejaVuSans-20" transform="scale(0.015625)"/>
       <path id="DejaVuSans-28" d="M 1984 4856 
Q 1566 4138 1362 3434 
Q 1159 2731 1159 2009 
Q 1159 1288 1364 580 
Q 1569 -128 1984 -844 
L 1484 -844 
Q 1016 -109 783 600 
Q 550 1309 550 2009 
Q 550 2706 781 3412 
Q 1013 4119 1484 4856 
L 1984 4856 
z
" transform="scale(0.015625)"/>
       <path id="DejaVuSans-73" d="M 2834 3397 
L 2834 2853 
Q 2591 2978 2328 3040 
Q 2066 3103 1784 3103 
Q 1356 3103 1142 2972 
Q 928 2841 928 2578 
Q 928 2378 1081 2264 
Q 1234 2150 1697 2047 
L 1894 2003 
Q 2506 1872 2764 1633 
Q 3022 1394 3022 966 
Q 3022 478 2636 193 
Q 2250 -91 1575 -91 
Q 1294 -91 989 -36 
Q 684 19 347 128 
L 347 722 
Q 666 556 975 473 
Q 1284 391 1588 391 
Q 1994 391 2212 530 
Q 2431 669 2431 922 
Q 2431 1156 2273 1281 
Q 2116 1406 1581 1522 
L 1381 1569 
Q 847 1681 609 1914 
Q 372 2147 372 2553 
Q 372 3047 722 3315 
Q 1072 3584 1716 3584 
Q 2034 3584 2315 3537 
Q 2597 3491 2834 3397 
z
" transform="scale(0.015625)"/>
       <path id="DejaVuSans-29" d="M 513 4856 
L 1013 4856 
Q 1481 4119 1714 3412 
Q 1947 2706 1947 2009 
Q 1947 1309 1714 600 
Q 1481 -109 1013 -844 
L 513 -844 
Q 928 -128 1133 580 
Q 1338 1288 1338 2009 
Q 1338 2731 1133 3434 
Q 928 4138 513 4856 
z
" transform="scale(0.015625)"/>
      </defs>
      <use xlink:href="#DejaVuSans-54"/>
      <use xlink:href="#DejaVuSans-69" x="57.958984"/>
      <use xlink:href="#DejaVuSans-6d" x="85.742188"/>
      <use xlink:href="#DejaVuSans-65" x="183.154297"/>
      <use xlink:href="#DejaVuSans-20" x="244.677734"/>
      <use xlink:href="#DejaVuSans-28" x="276.464844"/>
      <use xlink:href="#DejaVuSans-73" x="315.478516"/>
      <use xlink:href="#DejaVuSans-29" x="367.578125"/>
     </g>
    </g>
   </g>
   <g id="matplotlib.axis_2">
    <g id="ytick_1">
     <g id="line2d_7">
      <defs>
       <path id="mba7032feed" d="M 0 0 
L -3.5 0 
" style="stroke: #000000; stroke-width: 0.8"/>
      </defs>
      <g>
       <use xlink:href="#mba7032feed" x="47.72" y="304.796761" style="stroke: #000000; stroke-width: 0.8"/>
      </g>
     </g>
     <g id="text_8">
      <!-- 0.0 -->
      <g transform="translate(24.816875 308.59598) scale(0.1 -0.1)">
       <defs>
        <path id="DejaVuSans-2e" d="M 684 794 
L 1344 794 
L 1344 0 
L 684 0 
L 684 794 
z
" transform="scale(0.015625)"/>
       </defs>
       <use xlink:href="#DejaVuSans-30"/>
       <use xlink:href="#DejaVuSans-2e" x="63.623047"/>
       <use xlink:href="#DejaVuSans-30" x="95.410156"/>
      </g>
     </g>
    </g>
    <g id="ytick_2">
     <g id="line2d_8">
      <g>
       <use xlink:href="#mba7032feed" x="47.72" y="251.823807" style="stroke: #000000; stroke-width: 0.8"/>
      </g>
     </g>
     <g id="text_9">
      <!-- 0.2 -->
      <g transform="translate(24.816875 255.623026) scale(0.1 -0.1)">
       <use xlink:href="#DejaVuSans-30"/>
       <use xlink:href="#DejaVuSans-2e" x="63.623047"/>
       <use xlink:href="#DejaVuSans-32" x="95.410156"/>
      </g>
     </g>
    </g>
    <g id="ytick_3">
     <g id="line2d_9">
      <g>
       <use xlink:href="#mba7032feed" x="47.72" y="198.850852" style="stroke: #000000; stroke-width: 0.8"/>
      </g>
     </g>
     <g id="text_10">
      <!-- 0.4 -->
      <g transform="translate(24.816875 202.650071) scale(0.1 -0.1)">
       <use xlink:href="#DejaVuSans-30"/>
       <use xlink:href="#DejaVuSans-2e" x="63.623047"/>
       <use xlink:href="#DejaVuSans-34" x="95.410156"/>
      </g>
     </g>
    </g>
    <g id="ytick_4">
     <g id="line2d_10">
      <g>
       <use xlink:href="#mba7032feed" x="47.72" y="145.877898" style="stroke: #000000; stroke-width: 0.8"/>
      </g>
     </g>
     <g id="text_11">
      <!-- 0.6 -->
      <g transform="translate(24.816875 149.677116) scale(0.1 -0.1)">
       <use xlink:href="#DejaVuSans-30"/>
       <use xlink:href="#DejaVuSans-2e" x="63.623047"/>
       <use xlink:href="#DejaVuSans-36" x="95.410156"/>
      </g>
     </g>
    </g>
    <g id="ytick_5">
     <g id="line2d_11">
      <g>
       <use xlink:href="#mba7032feed" x="47.72" y="92.904943" style="stroke: #000000; stroke-width: 0.8"/>
      </g>
     </g>
     <g id="text_12">
      <!-- 0.8 -->
      <g transform="translate(24.816875 96.704162) scale(0.1 -0.1)">
       <use xlink:href="#DejaVuSans-30"/>
       <use xlink:href="#DejaVuSans-2e" x="63.623047"/>
       <use xlink:href="#DejaVuSans-38" x="95.410156"/>
      </g>
     </g>
    </g>
    <g id="ytick_6">
     <g id="line2d_12">
      <g>
       <use xlink:href="#mba7032feed" x="47.72" y="39.931989" style="stroke: #000000; stroke-width: 0.8"/>
      </g>
     </g>
     <g id="text_13">
      <!-- 1.0 -->
      <g transform="translate(24.816875 43.731207) scale(0.1 -0.1)">
       <use xlink:href="#DejaVuSans-31"/>
       <use xlink:href="#DejaVuSans-2e" x="63.623047"/>
       <use xlink:href="#DejaVuSans-30" x="95.410156"/>
      </g>
     </g>
    </g>
    <g id="text_14">
     <!-- mean FRET -->
     <g transform="translate(18.737188 200.696406) rotate(-90) scale(0.1 -0.1)">
      <defs>
       <path id="DejaVuSans-61" d="M 2194 1759 
Q 1497 1759 1228 1600 
Q 959 1441 959 1056 
Q 959 750 1161 570 
Q 1363 391 1709 391 
Q 2188 391 2477 730 
Q 2766 1069 2766 1631 
L 2766 1759 
L 2194 1759 
z
M 3341 1997 
L 3341 0 
L 2766 0 
L 2766 531 
Q 2569 213 2275 61 
Q 1981 -91 1556 -91 
Q 1019 -91 701 211 
Q 384 513 384 1019 
Q 384 1609 779 1909 
Q 1175 2209 1959 2209 
L 2766 2209 
L 2766 2266 
Q 2766 2663 2505 2880 
Q 2244 3097 1772 3097 
Q 1472 3097 1187 3025 
Q 903 2953 641 2809 
L 641 3341 
Q 956 3463 1253 3523 
Q 1550 3584 1831 3584 
Q 2591 3584 2966 3190 
Q 3341 2797 3341 1997 
z
" transform="scale(0.015625)"/>
       <path id="DejaVuSans-6e" d="M 3513 2113 
L 3513 0 
L 2938 0 
L 2938 2094 
Q 2938 2591 2744 2837 
Q 2550 3084 2163 3084 
Q 1697 3084 1428 2787 
Q 1159 2491 1159 1978 
L 1159 0 
L 581 0 
L 581 3500 
L 1159 3500 
L 1159 2956 
Q 1366 3272 1645 3428 
Q 1925 3584 2291 3584 
Q 2894 3584 3203 3211 
Q 3513 2838 3513 2113 
z
" transform="scale(0.015625)"/>
       <path id="DejaVuSans-46" d="M 628 4666 
L 3309 4666 
L 3309 4134 
L 1259 4134 
L 1259 2759 
L 3109 2759 
L 3109 2228 
L 1259 2228 
L 1259 0 
L 628 0 
L 628 4666 
z
" transform="scale(0.015625)"/>
       <path id="DejaVuSans-52" d="M 2841 2188 
Q 3044 2119 3236 1894 
Q 3428 1669 3622 1275 
L 4263 0 
L 3584 0 
L 2988 1197 
Q 2756 1666 2539 1819 
Q 2322 1972 1947 1972 
L 1259 1972 
L 1259 0 
L 628 0 
L 628 4666 
L 2053 4666 
Q 2853 4666 3247 4331 
Q 3641 3997 3641 3322 
Q 3641 2881 3436 2590 
Q 3231 2300 2841 2188 
z
M 1259 4147 
L 1259 2491 
L 2053 2491 
Q 2509 2491 2742 2702 
Q 2975 2913 2975 3322 
Q 2975 3731 2742 3939 
Q 2509 4147 2053 4147 
L 1259 4147 
z
" transform="scale(0.015625)"/>
       <path id="DejaVuSans-45" d="M 628 4666 
L 3578 4666 
L 3578 4134 
L 1259 4134 
L 1259 2753 
L 3481 2753 
L 3481 2222 
L 1259 2222 
L 1259 531 
L 3634 531 
L 3634 0 
L 628 0 
L 628 4666 
z
" transform="scale(0.015625)"/>
      </defs>
      <use xlink:href="#DejaVuSans-6d"/>
      <use xlink:href="#DejaVuSans-65" x="97.412109"/>
      <use xlink:href="#DejaVuSans-61" x="158.935547"/>
      <use xlink:href="#DejaVuSans-6e" x="220.214844"/>
      <use xlink:href="#DejaVuSans-20" x="283.59375"/>
      <use xlink:href="#DejaVuSans-46" x="315.380859"/>
      <use xlink:href="#DejaVuSans-52" x="372.900391"/>
      <use xlink:href="#DejaVuSans-45" x="442.382812"/>
      <use xlink:href="#DejaVuSans-54" x="505.566406"/>
     </g>
    </g>
   </g>
   <g id="LineCollection_1">
    <path d="M 55.970849 97.741832 
L 55.970849 86.667252 
" clip-path="url(#p1fcf1fed4b)" style="fill: none; stroke: #fbb61a; stroke-width: 1.5"/>
    <path d="M 67.169924 105.788588 
L 67.169924 80.640764 
" clip-path="url(#p1fcf1fed4b)" style="fill: none; stroke: #fbb61a; stroke-width: 1.5"/>
    <path d="M 78.369 98.691393 
L 78.369 82.670988 
" clip-path="url(#p1fcf1fed4b)" style="fill: none; stroke: #fbb61a; stroke-width: 1.5"/>
    <path d="M 89.568075 97.300505 
L 89.568075 77.266849 
" clip-path="url(#p1fcf1fed4b)" style="fill: none; stroke: #fbb61a; stroke-width: 1.5"/>
    <path d="M 100.76715 97.064607 
L 100.76715 83.690344 
" clip-path="url(#p1fcf1fed4b)" style="fill: none; stroke: #fbb61a; stroke-width: 1.5"/>
    <path d="M 111.966225 105.424217 
L 111.966225 83.255311 
" clip-path="url(#p1fcf1fed4b)" style="fill: none; stroke: #fbb61a; stroke-width: 1.5"/>
    <path d="M 123.165301 105.037405 
L 123.165301 87.171422 
" clip-path="url(#p1fcf1fed4b)" style="fill: none; stroke: #fbb61a; stroke-width: 1.5"/>
    <path d="M 134.364376 112.36776 
L 134.364376 79.793019 
" clip-path="url(#p1fcf1fed4b)" style="fill: none; stroke: #fbb61a; stroke-width: 1.5"/>
    <path d="M 145.563451 109.410573 
L 145.563451 78.050137 
" clip-path="url(#p1fcf1fed4b)" style="fill: none; stroke: #fbb61a; stroke-width: 1.5"/>
    <path d="M 156.762526 113.545477 
L 156.762526 53.254358 
" clip-path="url(#p1fcf1fed4b)" style="fill: none; stroke: #fbb61a; stroke-width: 1.5"/>
    <path d="M 167.961602 102.107238 
L 167.961602 74.170264 
" clip-path="url(#p1fcf1fed4b)" style="fill: none; stroke: #fbb61a; stroke-width: 1.5"/>
    <path d="M 179.160677 109.639543 
L 179.160677 80.926229 
" clip-path="url(#p1fcf1fed4b)" style="fill: none; stroke: #fbb61a; stroke-width: 1.5"/>
    <path d="M 190.359752 113.469882 
L 190.359752 74.031656 
" clip-path="url(#p1fcf1fed4b)" style="fill: none; stroke: #fbb61a; stroke-width: 1.5"/>
    <path d="M 201.558827 123.201045 
L 201.558827 80.203153 
" clip-path="url(#p1fcf1fed4b)" style="fill: none; stroke: #fbb61a; stroke-width: 1.5"/>
    <path d="M 212.757903 138.147011 
L 212.757903 84.364823 
" clip-path="url(#p1fcf1fed4b)" style="fill: none; stroke: #fbb61a; stroke-width: 1.5"/>
    <path d="M 223.956978 157.291166 
L 223.956978 113.529169 
" clip-path="url(#p1fcf1fed4b)" style="fill: none; stroke: #fbb61a; stroke-width: 1.5"/>
   </g>
   <g id="LineCollection_2">
    <path d="M 55.970849 75.187932 
L 55.970849 36.285883 
" clip-path="url(#p1fcf1fed4b)" style="fill: none; stroke: #ed6925; stroke-width: 1.5"/>
    <path d="M 72.67049 94.513506 
L 72.67049 65.793232 
" clip-path="url(#p1fcf1fed4b)" style="fill: none; stroke: #ed6925; stroke-width: 1.5"/>
    <path d="M 89.370132 134.134123 
L 89.370132 96.620661 
" clip-path="url(#p1fcf1fed4b)" style="fill: none; stroke: #ed6925; stroke-width: 1.5"/>
    <path d="M 106.069773 181.352894 
L 106.069773 141.475608 
" clip-path="url(#p1fcf1fed4b)" style="fill: none; stroke: #ed6925; stroke-width: 1.5"/>
    <path d="M 122.769414 225.35878 
L 122.769414 163.156123 
" clip-path="url(#p1fcf1fed4b)" style="fill: none; stroke: #ed6925; stroke-width: 1.5"/>
    <path d="M 139.469056 249.560813 
L 139.469056 202.859886 
" clip-path="url(#p1fcf1fed4b)" style="fill: none; stroke: #ed6925; stroke-width: 1.5"/>
    <path d="M 156.168697 269.901651 
L 156.168697 149.653693 
" clip-path="url(#p1fcf1fed4b)" style="fill: none; stroke: #ed6925; stroke-width: 1.5"/>
    <path d="M 172.868338 273.397526 
L 172.868338 243.997345 
" clip-path="url(#p1fcf1fed4b)" style="fill: none; stroke: #ed6925; stroke-width: 1.5"/>
    <path d="M 189.567979 277.731827 
L 189.567979 254.335326 
" clip-path="url(#p1fcf1fed4b)" style="fill: none; stroke: #ed6925; stroke-width: 1.5"/>
    <path d="M 206.267621 278.810465 
L 206.267621 253.355796 
" clip-path="url(#p1fcf1fed4b)" style="fill: none; stroke: #ed6925; stroke-width: 1.5"/>
    <path d="M 222.967262 306.428173 
L 222.967262 161.595173 
" clip-path="url(#p1fcf1fed4b)" style="fill: none; stroke: #ed6925; stroke-width: 1.5"/>
    <path d="M 239.666903 282.680081 
L 239.666903 262.187582 
" clip-path="url(#p1fcf1fed4b)" style="fill: none; stroke: #ed6925; stroke-width: 1.5"/>
    <path d="M 256.366545 284.378417 
L 256.366545 262.322196 
" clip-path="url(#p1fcf1fed4b)" style="fill: none; stroke: #ed6925; stroke-width: 1.5"/>
    <path d="M 273.066186 285.071656 
L 273.066186 263.896404 
" clip-path="url(#p1fcf1fed4b)" style="fill: none; stroke: #ed6925; stroke-width: 1.5"/>
    <path d="M 289.765827 286.816306 
L 289.765827 267.369497 
" clip-path="url(#p1fcf1fed4b)" style="fill: none; stroke: #ed6925; stroke-width: 1.5"/>
    <path d="M 306.465468 289.669839 
L 306.465468 267.364489 
" clip-path="url(#p1fcf1fed4b)" style="fill: none; stroke: #ed6925; stroke-width: 1.5"/>
   </g>
   <g id="LineCollection_3">
    <path d="M 55.970849 89.6768 
L 55.970849 65.696461 
" clip-path="url(#p1fcf1fed4b)" style="fill: none; stroke: #bc3754; stroke-width: 1.5"/>
    <path d="M 72.67049 141.625927 
L 72.67049 108.915045 
" clip-path="url(#p1fcf1fed4b)" style="fill: none; stroke: #bc3754; stroke-width: 1.5"/>
    <path d="M 89.370132 187.267396 
L 89.370132 163.39642 
" clip-path="url(#p1fcf1fed4b)" style="fill: none; stroke: #bc3754; stroke-width: 1.5"/>
    <path d="M 106.069773 232.568354 
L 106.069773 214.662036 
" clip-path="url(#p1fcf1fed4b)" style="fill: none; stroke: #bc3754; stroke-width: 1.5"/>
    <path d="M 122.769414 261.716298 
L 122.769414 253.535372 
" clip-path="url(#p1fcf1fed4b)" style="fill: none; stroke: #bc3754; stroke-width: 1.5"/>
    <path d="M 139.469056 276.61952 
L 139.469056 271.859578 
" clip-path="url(#p1fcf1fed4b)" style="fill: none; stroke: #bc3754; stroke-width: 1.5"/>
    <path d="M 156.168697 286.296298 
L 156.168697 280.898113 
" clip-path="url(#p1fcf1fed4b)" style="fill: none; stroke: #bc3754; stroke-width: 1.5"/>
    <path d="M 172.868338 291.406589 
L 172.868338 284.932874 
" clip-path="url(#p1fcf1fed4b)" style="fill: none; stroke: #bc3754; stroke-width: 1.5"/>
    <path d="M 189.567979 290.444825 
L 189.567979 284.173276 
" clip-path="url(#p1fcf1fed4b)" style="fill: none; stroke: #bc3754; stroke-width: 1.5"/>
    <path d="M 206.267621 293.019488 
L 206.267621 282.747797 
" clip-path="url(#p1fcf1fed4b)" style="fill: none; stroke: #bc3754; stroke-width: 1.5"/>
    <path d="M 222.967262 288.81955 
L 222.967262 282.384266 
" clip-path="url(#p1fcf1fed4b)" style="fill: none; stroke: #bc3754; stroke-width: 1.5"/>
    <path d="M 239.666903 289.315103 
L 239.666903 282.485701 
" clip-path="url(#p1fcf1fed4b)" style="fill: none; stroke: #bc3754; stroke-width: 1.5"/>
    <path d="M 256.366545 290.775452 
L 256.366545 280.411677 
" clip-path="url(#p1fcf1fed4b)" style="fill: none; stroke: #bc3754; stroke-width: 1.5"/>
    <path d="M 273.066186 292.137315 
L 273.066186 284.413785 
" clip-path="url(#p1fcf1fed4b)" style="fill: none; stroke: #bc3754; stroke-width: 1.5"/>
    <path d="M 289.765827 294.356256 
L 289.765827 287.304819 
" clip-path="url(#p1fcf1fed4b)" style="fill: none; stroke: #bc3754; stroke-width: 1.5"/>
    <path d="M 306.465468 331.726325 
L 306.465468 167.541602 
" clip-path="url(#p1fcf1fed4b)" style="fill: none; stroke: #bc3754; stroke-width: 1.5"/>
   </g>
   <g id="LineCollection_4">
    <path d="M 55.970849 99.92492 
L 55.970849 71.643245 
" clip-path="url(#p1fcf1fed4b)" style="fill: none; stroke: #781c6d; stroke-width: 1.5"/>
    <path d="M 72.67049 157.116157 
L 72.67049 143.172838 
" clip-path="url(#p1fcf1fed4b)" style="fill: none; stroke: #781c6d; stroke-width: 1.5"/>
    <path d="M 89.370132 230.072999 
L 89.370132 186.305985 
" clip-path="url(#p1fcf1fed4b)" style="fill: none; stroke: #781c6d; stroke-width: 1.5"/>
    <path d="M 106.069773 268.234088 
L 106.069773 238.066771 
" clip-path="url(#p1fcf1fed4b)" style="fill: none; stroke: #781c6d; stroke-width: 1.5"/>
    <path d="M 122.769414 284.229158 
L 122.769414 266.776641 
" clip-path="url(#p1fcf1fed4b)" style="fill: none; stroke: #781c6d; stroke-width: 1.5"/>
    <path d="M 139.469056 290.587058 
L 139.469056 278.349649 
" clip-path="url(#p1fcf1fed4b)" style="fill: none; stroke: #781c6d; stroke-width: 1.5"/>
    <path d="M 156.168697 297.138691 
L 156.168697 283.344678 
" clip-path="url(#p1fcf1fed4b)" style="fill: none; stroke: #781c6d; stroke-width: 1.5"/>
    <path d="M 172.868338 295.417692 
L 172.868338 290.069557 
" clip-path="url(#p1fcf1fed4b)" style="fill: none; stroke: #781c6d; stroke-width: 1.5"/>
    <path d="M 189.567979 294.629009 
L 189.567979 288.356558 
" clip-path="url(#p1fcf1fed4b)" style="fill: none; stroke: #781c6d; stroke-width: 1.5"/>
    <path d="M 206.267621 291.647028 
L 206.267621 286.443712 
" clip-path="url(#p1fcf1fed4b)" style="fill: none; stroke: #781c6d; stroke-width: 1.5"/>
    <path d="M 222.967262 290.662465 
L 222.967262 280.550295 
" clip-path="url(#p1fcf1fed4b)" style="fill: none; stroke: #781c6d; stroke-width: 1.5"/>
    <path d="M 239.666903 293.861305 
L 239.666903 284.00922 
" clip-path="url(#p1fcf1fed4b)" style="fill: none; stroke: #781c6d; stroke-width: 1.5"/>
    <path d="M 256.366545 293.380985 
L 256.366545 279.836471 
" clip-path="url(#p1fcf1fed4b)" style="fill: none; stroke: #781c6d; stroke-width: 1.5"/>
    <path d="M 273.066186 294.157779 
L 273.066186 287.645885 
" clip-path="url(#p1fcf1fed4b)" style="fill: none; stroke: #781c6d; stroke-width: 1.5"/>
    <path d="M 289.765827 294.257239 
L 289.765827 287.403272 
" clip-path="url(#p1fcf1fed4b)" style="fill: none; stroke: #781c6d; stroke-width: 1.5"/>
    <path d="M 306.465468 297.10532 
L 306.465468 289.077222 
" clip-path="url(#p1fcf1fed4b)" style="fill: none; stroke: #781c6d; stroke-width: 1.5"/>
   </g>
   <g id="LineCollection_5">
    <path d="M 55.970849 103.388433 
L 55.970849 74.140391 
" clip-path="url(#p1fcf1fed4b)" style="fill: none; stroke: #320a5e; stroke-width: 1.5"/>
    <path d="M 67.169924 160.22328 
L 67.169924 138.448617 
" clip-path="url(#p1fcf1fed4b)" style="fill: none; stroke: #320a5e; stroke-width: 1.5"/>
    <path d="M 78.369 209.976009 
L 78.369 168.233737 
" clip-path="url(#p1fcf1fed4b)" style="fill: none; stroke: #320a5e; stroke-width: 1.5"/>
    <path d="M 89.568075 230.574115 
L 89.568075 214.778798 
" clip-path="url(#p1fcf1fed4b)" style="fill: none; stroke: #320a5e; stroke-width: 1.5"/>
    <path d="M 100.76715 261.991175 
L 100.76715 245.326631 
" clip-path="url(#p1fcf1fed4b)" style="fill: none; stroke: #320a5e; stroke-width: 1.5"/>
    <path d="M 111.966225 284.044543 
L 111.966225 274.52822 
" clip-path="url(#p1fcf1fed4b)" style="fill: none; stroke: #320a5e; stroke-width: 1.5"/>
    <path d="M 123.165301 298.421563 
L 123.165301 280.54449 
" clip-path="url(#p1fcf1fed4b)" style="fill: none; stroke: #320a5e; stroke-width: 1.5"/>
    <path d="M 134.364376 300.758426 
L 134.364376 290.725136 
" clip-path="url(#p1fcf1fed4b)" style="fill: none; stroke: #320a5e; stroke-width: 1.5"/>
    <path d="M 145.563451 300.816863 
L 145.563451 295.413423 
" clip-path="url(#p1fcf1fed4b)" style="fill: none; stroke: #320a5e; stroke-width: 1.5"/>
    <path d="M 156.762526 301.662211 
L 156.762526 290.993426 
" clip-path="url(#p1fcf1fed4b)" style="fill: none; stroke: #320a5e; stroke-width: 1.5"/>
    <path d="M 167.961602 300.925906 
L 167.961602 292.457894 
" clip-path="url(#p1fcf1fed4b)" style="fill: none; stroke: #320a5e; stroke-width: 1.5"/>
    <path d="M 179.160677 300.83484 
L 179.160677 295.52793 
" clip-path="url(#p1fcf1fed4b)" style="fill: none; stroke: #320a5e; stroke-width: 1.5"/>
    <path d="M 190.359752 301.029764 
L 190.359752 290.221588 
" clip-path="url(#p1fcf1fed4b)" style="fill: none; stroke: #320a5e; stroke-width: 1.5"/>
    <path d="M 201.558827 301.937138 
L 201.558827 294.105739 
" clip-path="url(#p1fcf1fed4b)" style="fill: none; stroke: #320a5e; stroke-width: 1.5"/>
    <path d="M 212.757903 304.579519 
L 212.757903 297.857956 
" clip-path="url(#p1fcf1fed4b)" style="fill: none; stroke: #320a5e; stroke-width: 1.5"/>
    <path d="M 223.956978 302.240533 
L 223.956978 292.722919 
" clip-path="url(#p1fcf1fed4b)" style="fill: none; stroke: #320a5e; stroke-width: 1.5"/>
   </g>
   <g id="LineCollection_6">
    <path d="M 55.970849 103.808489 
L 55.970849 74.270809 
" clip-path="url(#p1fcf1fed4b)" style="fill: none; stroke: #000004; stroke-width: 1.5"/>
    <path d="M 67.169924 212.606786 
L 67.169924 131.42229 
" clip-path="url(#p1fcf1fed4b)" style="fill: none; stroke: #000004; stroke-width: 1.5"/>
    <path d="M 78.369 211.862515 
L 78.369 188.687808 
" clip-path="url(#p1fcf1fed4b)" style="fill: none; stroke: #000004; stroke-width: 1.5"/>
    <path d="M 89.568075 252.325847 
L 89.568075 236.330633 
" clip-path="url(#p1fcf1fed4b)" style="fill: none; stroke: #000004; stroke-width: 1.5"/>
    <path d="M 100.76715 278.121847 
L 100.76715 272.012963 
" clip-path="url(#p1fcf1fed4b)" style="fill: none; stroke: #000004; stroke-width: 1.5"/>
    <path d="M 111.966225 296.493102 
L 111.966225 282.744553 
" clip-path="url(#p1fcf1fed4b)" style="fill: none; stroke: #000004; stroke-width: 1.5"/>
    <path d="M 123.165301 300.59127 
L 123.165301 288.233 
" clip-path="url(#p1fcf1fed4b)" style="fill: none; stroke: #000004; stroke-width: 1.5"/>
    <path d="M 134.364376 301.864556 
L 134.364376 290.27006 
" clip-path="url(#p1fcf1fed4b)" style="fill: none; stroke: #000004; stroke-width: 1.5"/>
    <path d="M 145.563451 302.101603 
L 145.563451 293.397466 
" clip-path="url(#p1fcf1fed4b)" style="fill: none; stroke: #000004; stroke-width: 1.5"/>
    <path d="M 156.762526 301.215055 
L 156.762526 290.431408 
" clip-path="url(#p1fcf1fed4b)" style="fill: none; stroke: #000004; stroke-width: 1.5"/>
    <path d="M 167.961602 296.49959 
L 167.961602 289.896274 
" clip-path="url(#p1fcf1fed4b)" style="fill: none; stroke: #000004; stroke-width: 1.5"/>
    <path d="M 179.160677 294.306933 
L 179.160677 291.457276 
" clip-path="url(#p1fcf1fed4b)" style="fill: none; stroke: #000004; stroke-width: 1.5"/>
    <path d="M 190.359752 298.609913 
L 190.359752 286.99845 
" clip-path="url(#p1fcf1fed4b)" style="fill: none; stroke: #000004; stroke-width: 1.5"/>
    <path d="M 201.558827 303.028339 
L 201.558827 287.348891 
" clip-path="url(#p1fcf1fed4b)" style="fill: none; stroke: #000004; stroke-width: 1.5"/>
    <path d="M 212.757903 302.247725 
L 212.757903 293.507926 
" clip-path="url(#p1fcf1fed4b)" style="fill: none; stroke: #000004; stroke-width: 1.5"/>
    <path d="M 223.956978 303.274946 
L 223.956978 295.035923 
" clip-path="url(#p1fcf1fed4b)" style="fill: none; stroke: #000004; stroke-width: 1.5"/>
   </g>
   <g id="line2d_13">
    <defs>
     <path id="m0ef7e9d645" d="M 0 2.5 
C 0.663008 2.5 1.29895 2.236584 1.767767 1.767767 
C 2.236584 1.29895 2.5 0.663008 2.5 0 
C 2.5 -0.663008 2.236584 -1.29895 1.767767 -1.767767 
C 1.29895 -2.236584 0.663008 -2.5 0 -2.5 
C -0.663008 -2.5 -1.29895 -2.236584 -1.767767 -1.767767 
C -2.236584 -1.29895 -2.5 -0.663008 -2.5 0 
C -2.5 0.663008 -2.236584 1.29895 -1.767767 1.767767 
C -1.29895 2.236584 -0.663008 2.5 0 2.5 
z
" style="stroke: #fbb61a"/>
    </defs>
    <g clip-path="url(#p1fcf1fed4b)">
     <use xlink:href="#m0ef7e9d645" x="55.970849" y="92.204542" style="fill: #fbb61a; stroke: #fbb61a"/>
     <use xlink:href="#m0ef7e9d645" x="67.169924" y="93.214676" style="fill: #fbb61a; stroke: #fbb61a"/>
     <use xlink:href="#m0ef7e9d645" x="78.369" y="90.681191" style="fill: #fbb61a; stroke: #fbb61a"/>
     <use xlink:href="#m0ef7e9d645" x="89.568075" y="87.283677" style="fill: #fbb61a; stroke: #fbb61a"/>
     <use xlink:href="#m0ef7e9d645" x="100.76715" y="90.377476" style="fill: #fbb61a; stroke: #fbb61a"/>
     <use xlink:href="#m0ef7e9d645" x="111.966225" y="94.339764" style="fill: #fbb61a; stroke: #fbb61a"/>
     <use xlink:href="#m0ef7e9d645" x="123.165301" y="96.104414" style="fill: #fbb61a; stroke: #fbb61a"/>
     <use xlink:href="#m0ef7e9d645" x="134.364376" y="96.08039" style="fill: #fbb61a; stroke: #fbb61a"/>
     <use xlink:href="#m0ef7e9d645" x="145.563451" y="93.730355" style="fill: #fbb61a; stroke: #fbb61a"/>
     <use xlink:href="#m0ef7e9d645" x="156.762526" y="83.399918" style="fill: #fbb61a; stroke: #fbb61a"/>
     <use xlink:href="#m0ef7e9d645" x="167.961602" y="88.138751" style="fill: #fbb61a; stroke: #fbb61a"/>
     <use xlink:href="#m0ef7e9d645" x="179.160677" y="95.282886" style="fill: #fbb61a; stroke: #fbb61a"/>
     <use xlink:href="#m0ef7e9d645" x="190.359752" y="93.750769" style="fill: #fbb61a; stroke: #fbb61a"/>
     <use xlink:href="#m0ef7e9d645" x="201.558827" y="101.702099" style="fill: #fbb61a; stroke: #fbb61a"/>
     <use xlink:href="#m0ef7e9d645" x="212.757903" y="111.255917" style="fill: #fbb61a; stroke: #fbb61a"/>
     <use xlink:href="#m0ef7e9d645" x="223.956978" y="135.410168" style="fill: #fbb61a; stroke: #fbb61a"/>
    </g>
   </g>
   <g id="line2d_14">
    <defs>
     <path id="m17b5a66c2c" d="M 0 2.5 
C 0.663008 2.5 1.29895 2.236584 1.767767 1.767767 
C 2.236584 1.29895 2.5 0.663008 2.5 0 
C 2.5 -0.663008 2.236584 -1.29895 1.767767 -1.767767 
C 1.29895 -2.236584 0.663008 -2.5 0 -2.5 
C -0.663008 -2.5 -1.29895 -2.236584 -1.767767 -1.767767 
C -2.236584 -1.29895 -2.5 -0.663008 -2.5 0 
C -2.5 0.663008 -2.236584 1.29895 -1.767767 1.767767 
C -1.29895 2.236584 -0.663008 2.5 0 2.5 
z
" style="stroke: #ed6925"/>
    </defs>
    <g clip-path="url(#p1fcf1fed4b)">
     <use xlink:href="#m17b5a66c2c" x="55.970849" y="55.736908" style="fill: #ed6925; stroke: #ed6925"/>
     <use xlink:href="#m17b5a66c2c" x="72.67049" y="80.153369" style="fill: #ed6925; stroke: #ed6925"/>
     <use xlink:href="#m17b5a66c2c" x="89.370132" y="115.377392" style="fill: #ed6925; stroke: #ed6925"/>
     <use xlink:href="#m17b5a66c2c" x="106.069773" y="161.414251" style="fill: #ed6925; stroke: #ed6925"/>
     <use xlink:href="#m17b5a66c2c" x="122.769414" y="194.257452" style="fill: #ed6925; stroke: #ed6925"/>
     <use xlink:href="#m17b5a66c2c" x="139.469056" y="226.21035" style="fill: #ed6925; stroke: #ed6925"/>
     <use xlink:href="#m17b5a66c2c" x="156.168697" y="209.777672" style="fill: #ed6925; stroke: #ed6925"/>
     <use xlink:href="#m17b5a66c2c" x="172.868338" y="258.697435" style="fill: #ed6925; stroke: #ed6925"/>
     <use xlink:href="#m17b5a66c2c" x="189.567979" y="266.033576" style="fill: #ed6925; stroke: #ed6925"/>
     <use xlink:href="#m17b5a66c2c" x="206.267621" y="266.08313" style="fill: #ed6925; stroke: #ed6925"/>
     <use xlink:href="#m17b5a66c2c" x="222.967262" y="234.011673" style="fill: #ed6925; stroke: #ed6925"/>
     <use xlink:href="#m17b5a66c2c" x="239.666903" y="272.433832" style="fill: #ed6925; stroke: #ed6925"/>
     <use xlink:href="#m17b5a66c2c" x="256.366545" y="273.350307" style="fill: #ed6925; stroke: #ed6925"/>
     <use xlink:href="#m17b5a66c2c" x="273.066186" y="274.48403" style="fill: #ed6925; stroke: #ed6925"/>
     <use xlink:href="#m17b5a66c2c" x="289.765827" y="277.092902" style="fill: #ed6925; stroke: #ed6925"/>
     <use xlink:href="#m17b5a66c2c" x="306.465468" y="278.517164" style="fill: #ed6925; stroke: #ed6925"/>
    </g>
   </g>
   <g id="line2d_15">
    <defs>
     <path id="m9cfbda067e" d="M 0 2.5 
C 0.663008 2.5 1.29895 2.236584 1.767767 1.767767 
C 2.236584 1.29895 2.5 0.663008 2.5 0 
C 2.5 -0.663008 2.236584 -1.29895 1.767767 -1.767767 
C 1.29895 -2.236584 0.663008 -2.5 0 -2.5 
C -0.663008 -2.5 -1.29895 -2.236584 -1.767767 -1.767767 
C -2.236584 -1.29895 -2.5 -0.663008 -2.5 0 
C -2.5 0.663008 -2.236584 1.29895 -1.767767 1.767767 
C -1.29895 2.236584 -0.663008 2.5 0 2.5 
z
" style="stroke: #bc3754"/>
    </defs>
    <g clip-path="url(#p1fcf1fed4b)">
     <use xlink:href="#m9cfbda067e" x="55.970849" y="77.68663" style="fill: #bc3754; stroke: #bc3754"/>
     <use xlink:href="#m9cfbda067e" x="72.67049" y="125.270486" style="fill: #bc3754; stroke: #bc3754"/>
     <use xlink:href="#m9cfbda067e" x="89.370132" y="175.331908" style="fill: #bc3754; stroke: #bc3754"/>
     <use xlink:href="#m9cfbda067e" x="106.069773" y="223.615195" style="fill: #bc3754; stroke: #bc3754"/>
     <use xlink:href="#m9cfbda067e" x="122.769414" y="257.625835" style="fill: #bc3754; stroke: #bc3754"/>
     <use xlink:href="#m9cfbda067e" x="139.469056" y="274.239549" style="fill: #bc3754; stroke: #bc3754"/>
     <use xlink:href="#m9cfbda067e" x="156.168697" y="283.597205" style="fill: #bc3754; stroke: #bc3754"/>
     <use xlink:href="#m9cfbda067e" x="172.868338" y="288.169732" style="fill: #bc3754; stroke: #bc3754"/>
     <use xlink:href="#m9cfbda067e" x="189.567979" y="287.309051" style="fill: #bc3754; stroke: #bc3754"/>
     <use xlink:href="#m9cfbda067e" x="206.267621" y="287.883643" style="fill: #bc3754; stroke: #bc3754"/>
     <use xlink:href="#m9cfbda067e" x="222.967262" y="285.601908" style="fill: #bc3754; stroke: #bc3754"/>
     <use xlink:href="#m9cfbda067e" x="239.666903" y="285.900402" style="fill: #bc3754; stroke: #bc3754"/>
     <use xlink:href="#m9cfbda067e" x="256.366545" y="285.593564" style="fill: #bc3754; stroke: #bc3754"/>
     <use xlink:href="#m9cfbda067e" x="273.066186" y="288.27555" style="fill: #bc3754; stroke: #bc3754"/>
     <use xlink:href="#m9cfbda067e" x="289.765827" y="290.830537" style="fill: #bc3754; stroke: #bc3754"/>
     <use xlink:href="#m9cfbda067e" x="306.465468" y="249.633963" style="fill: #bc3754; stroke: #bc3754"/>
    </g>
   </g>
   <g id="line2d_16">
    <defs>
     <path id="m4c791a1a0f" d="M 0 2.5 
C 0.663008 2.5 1.29895 2.236584 1.767767 1.767767 
C 2.236584 1.29895 2.5 0.663008 2.5 0 
C 2.5 -0.663008 2.236584 -1.29895 1.767767 -1.767767 
C 1.29895 -2.236584 0.663008 -2.5 0 -2.5 
C -0.663008 -2.5 -1.29895 -2.236584 -1.767767 -1.767767 
C -2.236584 -1.29895 -2.5 -0.663008 -2.5 0 
C -2.5 0.663008 -2.236584 1.29895 -1.767767 1.767767 
C -1.29895 2.236584 -0.663008 2.5 0 2.5 
z
" style="stroke: #781c6d"/>
    </defs>
    <g clip-path="url(#p1fcf1fed4b)">
     <use xlink:href="#m4c791a1a0f" x="55.970849" y="85.784083" style="fill: #781c6d; stroke: #781c6d"/>
     <use xlink:href="#m4c791a1a0f" x="72.67049" y="150.144498" style="fill: #781c6d; stroke: #781c6d"/>
     <use xlink:href="#m4c791a1a0f" x="89.370132" y="208.189492" style="fill: #781c6d; stroke: #781c6d"/>
     <use xlink:href="#m4c791a1a0f" x="106.069773" y="253.150429" style="fill: #781c6d; stroke: #781c6d"/>
     <use xlink:href="#m4c791a1a0f" x="122.769414" y="275.5029" style="fill: #781c6d; stroke: #781c6d"/>
     <use xlink:href="#m4c791a1a0f" x="139.469056" y="284.468354" style="fill: #781c6d; stroke: #781c6d"/>
     <use xlink:href="#m4c791a1a0f" x="156.168697" y="290.241685" style="fill: #781c6d; stroke: #781c6d"/>
     <use xlink:href="#m4c791a1a0f" x="172.868338" y="292.743624" style="fill: #781c6d; stroke: #781c6d"/>
     <use xlink:href="#m4c791a1a0f" x="189.567979" y="291.492784" style="fill: #781c6d; stroke: #781c6d"/>
     <use xlink:href="#m4c791a1a0f" x="206.267621" y="289.04537" style="fill: #781c6d; stroke: #781c6d"/>
     <use xlink:href="#m4c791a1a0f" x="222.967262" y="285.60638" style="fill: #781c6d; stroke: #781c6d"/>
     <use xlink:href="#m4c791a1a0f" x="239.666903" y="288.935263" style="fill: #781c6d; stroke: #781c6d"/>
     <use xlink:href="#m4c791a1a0f" x="256.366545" y="286.608728" style="fill: #781c6d; stroke: #781c6d"/>
     <use xlink:href="#m4c791a1a0f" x="273.066186" y="290.901832" style="fill: #781c6d; stroke: #781c6d"/>
     <use xlink:href="#m4c791a1a0f" x="289.765827" y="290.830255" style="fill: #781c6d; stroke: #781c6d"/>
     <use xlink:href="#m4c791a1a0f" x="306.465468" y="293.091271" style="fill: #781c6d; stroke: #781c6d"/>
    </g>
   </g>
   <g id="line2d_17">
    <defs>
     <path id="m2e487ea931" d="M 0 2.5 
C 0.663008 2.5 1.29895 2.236584 1.767767 1.767767 
C 2.236584 1.29895 2.5 0.663008 2.5 0 
C 2.5 -0.663008 2.236584 -1.29895 1.767767 -1.767767 
C 1.29895 -2.236584 0.663008 -2.5 0 -2.5 
C -0.663008 -2.5 -1.29895 -2.236584 -1.767767 -1.767767 
C -2.236584 -1.29895 -2.5 -0.663008 -2.5 0 
C -2.5 0.663008 -2.236584 1.29895 -1.767767 1.767767 
C -1.29895 2.236584 -0.663008 2.5 0 2.5 
z
" style="stroke: #320a5e"/>
    </defs>
    <g clip-path="url(#p1fcf1fed4b)">
     <use xlink:href="#m2e487ea931" x="55.970849" y="88.764412" style="fill: #320a5e; stroke: #320a5e"/>
     <use xlink:href="#m2e487ea931" x="67.169924" y="149.335949" style="fill: #320a5e; stroke: #320a5e"/>
     <use xlink:href="#m2e487ea931" x="78.369" y="189.104873" style="fill: #320a5e; stroke: #320a5e"/>
     <use xlink:href="#m2e487ea931" x="89.568075" y="222.676456" style="fill: #320a5e; stroke: #320a5e"/>
     <use xlink:href="#m2e487ea931" x="100.76715" y="253.658903" style="fill: #320a5e; stroke: #320a5e"/>
     <use xlink:href="#m2e487ea931" x="111.966225" y="279.286381" style="fill: #320a5e; stroke: #320a5e"/>
     <use xlink:href="#m2e487ea931" x="123.165301" y="289.483026" style="fill: #320a5e; stroke: #320a5e"/>
     <use xlink:href="#m2e487ea931" x="134.364376" y="295.741781" style="fill: #320a5e; stroke: #320a5e"/>
     <use xlink:href="#m2e487ea931" x="145.563451" y="298.115143" style="fill: #320a5e; stroke: #320a5e"/>
     <use xlink:href="#m2e487ea931" x="156.762526" y="296.327819" style="fill: #320a5e; stroke: #320a5e"/>
     <use xlink:href="#m2e487ea931" x="167.961602" y="296.6919" style="fill: #320a5e; stroke: #320a5e"/>
     <use xlink:href="#m2e487ea931" x="179.160677" y="298.181385" style="fill: #320a5e; stroke: #320a5e"/>
     <use xlink:href="#m2e487ea931" x="190.359752" y="295.625676" style="fill: #320a5e; stroke: #320a5e"/>
     <use xlink:href="#m2e487ea931" x="201.558827" y="298.021438" style="fill: #320a5e; stroke: #320a5e"/>
     <use xlink:href="#m2e487ea931" x="212.757903" y="301.218737" style="fill: #320a5e; stroke: #320a5e"/>
     <use xlink:href="#m2e487ea931" x="223.956978" y="297.481726" style="fill: #320a5e; stroke: #320a5e"/>
    </g>
   </g>
   <g id="line2d_18">
    <defs>
     <path id="mcef8b79ce9" d="M 0 2.5 
C 0.663008 2.5 1.29895 2.236584 1.767767 1.767767 
C 2.236584 1.29895 2.5 0.663008 2.5 0 
C 2.5 -0.663008 2.236584 -1.29895 1.767767 -1.767767 
C 1.29895 -2.236584 0.663008 -2.5 0 -2.5 
C -0.663008 -2.5 -1.29895 -2.236584 -1.767767 -1.767767 
C -2.236584 -1.29895 -2.5 -0.663008 -2.5 0 
C -2.5 0.663008 -2.236584 1.29895 -1.767767 1.767767 
C -1.29895 2.236584 -0.663008 2.5 0 2.5 
z
" style="stroke: #000004"/>
    </defs>
    <g clip-path="url(#p1fcf1fed4b)">
     <use xlink:href="#mcef8b79ce9" x="55.970849" y="89.039649" style="fill: #000004; stroke: #000004"/>
     <use xlink:href="#mcef8b79ce9" x="67.169924" y="172.014538" style="fill: #000004; stroke: #000004"/>
     <use xlink:href="#mcef8b79ce9" x="78.369" y="200.275162" style="fill: #000004; stroke: #000004"/>
     <use xlink:href="#mcef8b79ce9" x="89.568075" y="244.32824" style="fill: #000004; stroke: #000004"/>
     <use xlink:href="#mcef8b79ce9" x="100.76715" y="275.067405" style="fill: #000004; stroke: #000004"/>
     <use xlink:href="#mcef8b79ce9" x="111.966225" y="289.618827" style="fill: #000004; stroke: #000004"/>
     <use xlink:href="#mcef8b79ce9" x="123.165301" y="294.412135" style="fill: #000004; stroke: #000004"/>
     <use xlink:href="#mcef8b79ce9" x="134.364376" y="296.067308" style="fill: #000004; stroke: #000004"/>
     <use xlink:href="#mcef8b79ce9" x="145.563451" y="297.749534" style="fill: #000004; stroke: #000004"/>
     <use xlink:href="#mcef8b79ce9" x="156.762526" y="295.823231" style="fill: #000004; stroke: #000004"/>
     <use xlink:href="#mcef8b79ce9" x="167.961602" y="293.197932" style="fill: #000004; stroke: #000004"/>
     <use xlink:href="#mcef8b79ce9" x="179.160677" y="292.882104" style="fill: #000004; stroke: #000004"/>
     <use xlink:href="#mcef8b79ce9" x="190.359752" y="292.804181" style="fill: #000004; stroke: #000004"/>
     <use xlink:href="#mcef8b79ce9" x="201.558827" y="295.188615" style="fill: #000004; stroke: #000004"/>
     <use xlink:href="#mcef8b79ce9" x="212.757903" y="297.877825" style="fill: #000004; stroke: #000004"/>
     <use xlink:href="#mcef8b79ce9" x="223.956978" y="299.155434" style="fill: #000004; stroke: #000004"/>
    </g>
   </g>
   <g id="patch_3">
    <path d="M 47.72 318.04 
L 47.72 26.68875 
" style="fill: none; stroke: #000000; stroke-width: 0.8; stroke-linejoin: miter; stroke-linecap: square"/>
   </g>
   <g id="patch_4">
    <path d="M 339.25 318.04 
L 339.25 26.68875 
" style="fill: none; stroke: #000000; stroke-width: 0.8; stroke-linejoin: miter; stroke-linecap: square"/>
   </g>
   <g id="patch_5">
    <path d="M 47.72 318.04 
L 339.25 318.04 
" style="fill: none; stroke: #000000; stroke-width: 0.8; stroke-linejoin: miter; stroke-linecap: square"/>
   </g>
   <g id="patch_6">
    <path d="M 47.72 26.68875 
L 339.25 26.68875 
" style="fill: none; stroke: #000000; stroke-width: 0.8; stroke-linejoin: miter; stroke-linecap: square"/>
   </g>
   <g id="text_15">
    <!-- CNOT7X_CAPRIN1 + 100 nM RNA -->
    <g transform="translate(93.484687 20.68875) scale(0.12 -0.12)">
     <defs>
      <path id="DejaVuSans-43" d="M 4122 4306 
L 4122 3641 
Q 3803 3938 3442 4084 
Q 3081 4231 2675 4231 
Q 1875 4231 1450 3742 
Q 1025 3253 1025 2328 
Q 1025 1406 1450 917 
Q 1875 428 2675 428 
Q 3081 428 3442 575 
Q 3803 722 4122 1019 
L 4122 359 
Q 3791 134 3420 21 
Q 3050 -91 2638 -91 
Q 1578 -91 968 557 
Q 359 1206 359 2328 
Q 359 3453 968 4101 
Q 1578 4750 2638 4750 
Q 3056 4750 3426 4639 
Q 3797 4528 4122 4306 
z
" transform="scale(0.015625)"/>
      <path id="DejaVuSans-4e" d="M 628 4666 
L 1478 4666 
L 3547 763 
L 3547 4666 
L 4159 4666 
L 4159 0 
L 3309 0 
L 1241 3903 
L 1241 0 
L 628 0 
L 628 4666 
z
" transform="scale(0.015625)"/>
      <path id="DejaVuSans-4f" d="M 2522 4238 
Q 1834 4238 1429 3725 
Q 1025 3213 1025 2328 
Q 1025 1447 1429 934 
Q 1834 422 2522 422 
Q 3209 422 3611 934 
Q 4013 1447 4013 2328 
Q 4013 3213 3611 3725 
Q 3209 4238 2522 4238 
z
M 2522 4750 
Q 3503 4750 4090 4092 
Q 4678 3434 4678 2328 
Q 4678 1225 4090 567 
Q 3503 -91 2522 -91 
Q 1538 -91 948 565 
Q 359 1222 359 2328 
Q 359 3434 948 4092 
Q 1538 4750 2522 4750 
z
" transform="scale(0.015625)"/>
      <path id="DejaVuSans-37" d="M 525 4666 
L 3525 4666 
L 3525 4397 
L 1831 0 
L 1172 0 
L 2766 4134 
L 525 4134 
L 525 4666 
z
" transform="scale(0.015625)"/>
      <path id="DejaVuSans-58" d="M 403 4666 
L 1081 4666 
L 2241 2931 
L 3406 4666 
L 4084 4666 
L 2584 2425 
L 4184 0 
L 3506 0 
L 2194 1984 
L 872 0 
L 191 0 
L 1856 2491 
L 403 4666 
z
" transform="scale(0.015625)"/>
      <path id="DejaVuSans-5f" d="M 3263 -1063 
L 3263 -1509 
L -63 -1509 
L -63 -1063 
L 3263 -1063 
z
" transform="scale(0.015625)"/>
      <path id="DejaVuSans-41" d="M 2188 4044 
L 1331 1722 
L 3047 1722 
L 2188 4044 
z
M 1831 4666 
L 2547 4666 
L 4325 0 
L 3669 0 
L 3244 1197 
L 1141 1197 
L 716 0 
L 50 0 
L 1831 4666 
z
" transform="scale(0.015625)"/>
      <path id="DejaVuSans-50" d="M 1259 4147 
L 1259 2394 
L 2053 2394 
Q 2494 2394 2734 2622 
Q 2975 2850 2975 3272 
Q 2975 3691 2734 3919 
Q 2494 4147 2053 4147 
L 1259 4147 
z
M 628 4666 
L 2053 4666 
Q 2838 4666 3239 4311 
Q 3641 3956 3641 3272 
Q 3641 2581 3239 2228 
Q 2838 1875 2053 1875 
L 1259 1875 
L 1259 0 
L 628 0 
L 628 4666 
z
" transform="scale(0.015625)"/>
      <path id="DejaVuSans-49" d="M 628 4666 
L 1259 4666 
L 1259 0 
L 628 0 
L 628 4666 
z
" transform="scale(0.015625)"/>
      <path id="DejaVuSans-2b" d="M 2944 4013 
L 2944 2272 
L 4684 2272 
L 4684 1741 
L 2944 1741 
L 2944 0 
L 2419 0 
L 2419 1741 
L 678 1741 
L 678 2272 
L 2419 2272 
L 2419 4013 
L 2944 4013 
z
" transform="scale(0.015625)"/>
      <path id="DejaVuSans-4d" d="M 628 4666 
L 1569 4666 
L 2759 1491 
L 3956 4666 
L 4897 4666 
L 4897 0 
L 4281 0 
L 4281 4097 
L 3078 897 
L 2444 897 
L 1241 4097 
L 1241 0 
L 628 0 
L 628 4666 
z
" transform="scale(0.015625)"/>
     </defs>
     <use xlink:href="#DejaVuSans-43"/>
     <use xlink:href="#DejaVuSans-4e" x="69.824219"/>
     <use xlink:href="#DejaVuSans-4f" x="144.628906"/>
     <use xlink:href="#DejaVuSans-54" x="223.339844"/>
     <use xlink:href="#DejaVuSans-37" x="284.423828"/>
     <use xlink:href="#DejaVuSans-58" x="348.046875"/>
     <use xlink:href="#DejaVuSans-5f" x="416.552734"/>
     <use xlink:href="#DejaVuSans-43" x="466.552734"/>
     <use xlink:href="#DejaVuSans-41" x="536.376953"/>
     <use xlink:href="#DejaVuSans-50" x="604.785156"/>
     <use xlink:href="#DejaVuSans-52" x="665.087891"/>
     <use xlink:href="#DejaVuSans-49" x="734.570312"/>
     <use xlink:href="#DejaVuSans-4e" x="764.0625"/>
     <use xlink:href="#DejaVuSans-31" x="838.867188"/>
     <use xlink:href="#DejaVuSans-20" x="902.490234"/>
     <use xlink:href="#DejaVuSans-2b" x="934.277344"/>
     <use xlink:href="#DejaVuSans-20" x="1018.066406"/>
     <use xlink:href="#DejaVuSans-31" x="1049.853516"/>
     <use xlink:href="#DejaVuSans-30" x="1113.476562"/>
     <use xlink:href="#DejaVuSans-30" x="1177.099609"/>
     <use xlink:href="#DejaVuSans-20" x="1240.722656"/>
     <use xlink:href="#DejaVuSans-6e" x="1272.509766"/>
     <use xlink:href="#DejaVuSans-4d" x="1335.888672"/>
     <use xlink:href="#DejaVuSans-20" x="1422.167969"/>
     <use xlink:href="#DejaVuSans-52" x="1453.955078"/>
     <use xlink:href="#DejaVuSans-4e" x="1523.4375"/>
     <use xlink:href="#DejaVuSans-41" x="1598.242188"/>
    </g>
   </g>
   <g id="legend_1">
    <g id="text_16">
     <!-- [CNOT7X_CAPRIN1] (uM) -->
     <g transform="translate(361.0265 41.487188) scale(0.1 -0.1)">
      <defs>
       <path id="DejaVuSans-5b" d="M 550 4863 
L 1875 4863 
L 1875 4416 
L 1125 4416 
L 1125 -397 
L 1875 -397 
L 1875 -844 
L 550 -844 
L 550 4863 
z
" transform="scale(0.015625)"/>
       <path id="DejaVuSans-5d" d="M 1947 4863 
L 1947 -844 
L 622 -844 
L 622 -397 
L 1369 -397 
L 1369 4416 
L 622 4416 
L 622 4863 
L 1947 4863 
z
" transform="scale(0.015625)"/>
       <path id="DejaVuSans-75" d="M 544 1381 
L 544 3500 
L 1119 3500 
L 1119 1403 
Q 1119 906 1312 657 
Q 1506 409 1894 409 
Q 2359 409 2629 706 
Q 2900 1003 2900 1516 
L 2900 3500 
L 3475 3500 
L 3475 0 
L 2900 0 
L 2900 538 
Q 2691 219 2414 64 
Q 2138 -91 1772 -91 
Q 1169 -91 856 284 
Q 544 659 544 1381 
z
M 1991 3584 
L 1991 3584 
z
" transform="scale(0.015625)"/>
      </defs>
      <use xlink:href="#DejaVuSans-5b"/>
      <use xlink:href="#DejaVuSans-43" x="39.013672"/>
      <use xlink:href="#DejaVuSans-4e" x="108.837891"/>
      <use xlink:href="#DejaVuSans-4f" x="183.642578"/>
      <use xlink:href="#DejaVuSans-54" x="262.353516"/>
      <use xlink:href="#DejaVuSans-37" x="323.4375"/>
      <use xlink:href="#DejaVuSans-58" x="387.060547"/>
      <use xlink:href="#DejaVuSans-5f" x="455.566406"/>
      <use xlink:href="#DejaVuSans-43" x="505.566406"/>
      <use xlink:href="#DejaVuSans-41" x="575.390625"/>
      <use xlink:href="#DejaVuSans-50" x="643.798828"/>
      <use xlink:href="#DejaVuSans-52" x="704.101562"/>
      <use xlink:href="#DejaVuSans-49" x="773.583984"/>
      <use xlink:href="#DejaVuSans-4e" x="803.076172"/>
      <use xlink:href="#DejaVuSans-31" x="877.880859"/>
      <use xlink:href="#DejaVuSans-5d" x="941.503906"/>
      <use xlink:href="#DejaVuSans-20" x="980.517578"/>
      <use xlink:href="#DejaVuSans-28" x="1012.304688"/>
      <use xlink:href="#DejaVuSans-75" x="1051.318359"/>
      <use xlink:href="#DejaVuSans-4d" x="1114.697266"/>
      <use xlink:href="#DejaVuSans-29" x="1200.976562"/>
     </g>
    </g>
    <g id="LineCollection_7">
     <path d="M 410.921031 55.12375 
L 410.921031 47.12375 
" style="fill: none; stroke: #fbb61a; stroke-width: 1.5"/>
    </g>
    <g id="line2d_19"/>
    <g id="line2d_20">
     <g>
      <use xlink:href="#m0ef7e9d645" x="410.921031" y="51.12375" style="fill: #fbb61a; stroke: #fbb61a"/>
     </g>
    </g>
    <g id="text_17">
     <!-- 0.0 -->
     <g transform="translate(425.321031 53.92375) scale(0.08 -0.08)">
      <use xlink:href="#DejaVuSans-30"/>
      <use xlink:href="#DejaVuSans-2e" x="63.623047"/>
      <use xlink:href="#DejaVuSans-30" x="95.410156"/>
     </g>
    </g>
    <g id="LineCollection_8">
     <path d="M 410.921031 66.86625 
L 410.921031 58.86625 
" style="fill: none; stroke: #ed6925; stroke-width: 1.5"/>
    </g>
    <g id="line2d_21"/>
    <g id="line2d_22">
     <g>
      <use xlink:href="#m17b5a66c2c" x="410.921031" y="62.86625" style="fill: #ed6925; stroke: #ed6925"/>
     </g>
    </g>
    <g id="text_18">
     <!-- 2.0 -->
     <g transform="translate(425.321031 65.66625) scale(0.08 -0.08)">
      <use xlink:href="#DejaVuSans-32"/>
      <use xlink:href="#DejaVuSans-2e" x="63.623047"/>
      <use xlink:href="#DejaVuSans-30" x="95.410156"/>
     </g>
    </g>
    <g id="LineCollection_9">
     <path d="M 410.921031 78.60875 
L 410.921031 70.60875 
" style="fill: none; stroke: #bc3754; stroke-width: 1.5"/>
    </g>
    <g id="line2d_23"/>
    <g id="line2d_24">
     <g>
      <use xlink:href="#m9cfbda067e" x="410.921031" y="74.60875" style="fill: #bc3754; stroke: #bc3754"/>
     </g>
    </g>
    <g id="text_19">
     <!-- 3.0 -->
     <g transform="translate(425.321031 77.40875) scale(0.08 -0.08)">
      <use xlink:href="#DejaVuSans-33"/>
      <use xlink:href="#DejaVuSans-2e" x="63.623047"/>
      <use xlink:href="#DejaVuSans-30" x="95.410156"/>
     </g>
    </g>
    <g id="LineCollection_10">
     <path d="M 410.921031 90.35125 
L 410.921031 82.35125 
" style="fill: none; stroke: #781c6d; stroke-width: 1.5"/>
    </g>
    <g id="line2d_25"/>
    <g id="line2d_26">
     <g>
      <use xlink:href="#m4c791a1a0f" x="410.921031" y="86.35125" style="fill: #781c6d; stroke: #781c6d"/>
     </g>
    </g>
    <g id="text_20">
     <!-- 5.0 -->
     <g transform="translate(425.321031 89.15125) scale(0.08 -0.08)">
      <defs>
       <path id="DejaVuSans-35" d="M 691 4666 
L 3169 4666 
L 3169 4134 
L 1269 4134 
L 1269 2991 
Q 1406 3038 1543 3061 
Q 1681 3084 1819 3084 
Q 2600 3084 3056 2656 
Q 3513 2228 3513 1497 
Q 3513 744 3044 326 
Q 2575 -91 1722 -91 
Q 1428 -91 1123 -41 
Q 819 9 494 109 
L 494 744 
Q 775 591 1075 516 
Q 1375 441 1709 441 
Q 2250 441 2565 725 
Q 2881 1009 2881 1497 
Q 2881 1984 2565 2268 
Q 2250 2553 1709 2553 
Q 1456 2553 1204 2497 
Q 953 2441 691 2322 
L 691 4666 
z
" transform="scale(0.015625)"/>
      </defs>
      <use xlink:href="#DejaVuSans-35"/>
      <use xlink:href="#DejaVuSans-2e" x="63.623047"/>
      <use xlink:href="#DejaVuSans-30" x="95.410156"/>
     </g>
    </g>
    <g id="LineCollection_11">
     <path d="M 410.921031 102.09375 
L 410.921031 94.09375 
" style="fill: none; stroke: #320a5e; stroke-width: 1.5"/>
    </g>
    <g id="line2d_27"/>
    <g id="line2d_28">
     <g>
      <use xlink:href="#m2e487ea931" x="410.921031" y="98.09375" style="fill: #320a5e; stroke: #320a5e"/>
     </g>
    </g>
    <g id="text_21">
     <!-- 7.0 -->
     <g transform="translate(425.321031 100.89375) scale(0.08 -0.08)">
      <use xlink:href="#DejaVuSans-37"/>
      <use xlink:href="#DejaVuSans-2e" x="63.623047"/>
      <use xlink:href="#DejaVuSans-30" x="95.410156"/>
     </g>
    </g>
    <g id="LineCollection_12">
     <path d="M 410.921031 113.83625 
L 410.921031 105.83625 
" style="fill: none; stroke: #000004; stroke-width: 1.5"/>
    </g>
    <g id="line2d_29"/>
    <g id="line2d_30">
     <g>
      <use xlink:href="#mcef8b79ce9" x="410.921031" y="109.83625" style="fill: #000004; stroke: #000004"/>
     </g>
    </g>
    <g id="text_22">
     <!-- 10.0 -->
     <g transform="translate(425.321031 112.63625) scale(0.08 -0.08)">
      <use xlink:href="#DejaVuSans-31"/>
      <use xlink:href="#DejaVuSans-30" x="63.623047"/>
      <use xlink:href="#DejaVuSans-2e" x="127.246094"/>
      <use xlink:href="#DejaVuSans-30" x="159.033203"/>
     </g>
    </g>
   </g>
  </g>
 </g>
 <defs>
  <clipPath id="p1fcf1fed4b">
   <rect x="47.72" y="26.68875" width="291.53" height="291.35125"/>
  </clipPath>
 </defs>
</svg>
